<svg width="16" height="14" viewBox="0 0 16 14" fill="none" xmlns="http://www.w3.org/2000/svg">
<path d="M8 10.2383C7.36719 10.2383 6.82812 10.0273 6.38281 9.60547C5.96094 9.16016 5.75 8.62109 5.75 7.98828C5.75 7.58984 5.84375 7.21484 6.03125 6.86328C6.24219 6.51172 6.52344 6.24219 6.875 6.05469L14.1523 1.83594L10.0039 9.00781C9.81641 9.38281 9.53516 9.6875 9.16016 9.92188C8.80859 10.1328 8.42188 10.2383 8 10.2383ZM8 0.5C9.3125 0.5 10.5547 0.828125 11.7266 1.48438L10.1445 2.39844C9.46484 2.14063 8.75 2.01172 8 2.01172C6.92188 2.01172 5.91406 2.28125 4.97656 2.82031C4.0625 3.35937 3.33594 4.08594 2.79688 5C2.25781 5.91406 1.98828 6.91016 1.98828 7.98828C1.98828 8.80859 2.14062 9.58203 2.44531 10.3086C2.77344 11.0352 3.20703 11.6797 3.74609 12.2422C3.91016 12.3828 3.99219 12.5586 3.99219 12.7695C3.99219 12.9805 3.91016 13.1562 3.74609 13.2969C3.60547 13.4375 3.42969 13.5078 3.21875 13.5078C3.00781 13.5078 2.83203 13.4375 2.69141 13.2969C2.01172 12.6172 1.47266 11.8203 1.07422 10.9062C0.699219 9.99219 0.511719 9.03125 0.511719 8.02344C0.511719 7.01562 0.699219 6.05469 1.07422 5.14062C1.44922 4.20312 1.98828 3.38281 2.69141 2.67969C3.39453 1.97656 4.20312 1.4375 5.11719 1.0625C6.05469 0.6875 7.01562 0.5 8 0.5ZM15.4883 7.98828C15.4883 9.01953 15.2891 9.99219 14.8906 10.9062C14.5156 11.8203 13.9883 12.6172 13.3086 13.2969C13.168 13.4375 12.9922 13.5078 12.7812 13.5078C12.5703 13.5078 12.3945 13.4375 12.2539 13.2969C12.1133 13.1562 12.043 12.9805 12.043 12.7695C12.043 12.5586 12.1133 12.3828 12.2539 12.2422C12.793 11.6797 13.2148 11.0352 13.5195 10.3086C13.8477 9.58203 14.0117 8.80859 14.0117 7.98828C14.0117 7.23828 13.8711 6.51172 13.5898 5.80859L14.5039 4.26172C15.1602 5.45703 15.4883 6.69922 15.4883 7.98828Z" fill="#212229"/>
</svg>
